<mxfile host="65bd71144e">
    <diagram id="Ww96EtgWR8Mv7tmU0v5q" name="Page-1">
        <mxGraphModel dx="1954" dy="553" grid="1" gridSize="10" guides="1" tooltips="1" connect="1" arrows="1" fold="1" page="1" pageScale="1" pageWidth="850" pageHeight="1100" math="0" shadow="0">
            <root>
                <mxCell id="0"/>
                <mxCell id="1" parent="0"/>
                <mxCell id="14" value="" style="sketch=0;aspect=fixed;pointerEvents=1;shadow=0;dashed=0;html=1;strokeColor=#001DBC;labelPosition=center;verticalLabelPosition=bottom;verticalAlign=top;align=center;fillColor=#0050ef;shape=mxgraph.azure.computer;fontColor=#ffffff;" parent="1" vertex="1">
                    <mxGeometry y="240" width="80" height="72" as="geometry"/>
                </mxCell>
                <mxCell id="15" value="" style="sketch=0;pointerEvents=1;shadow=0;dashed=0;html=1;strokeColor=#001DBC;fillColor=#0050ef;labelPosition=center;verticalLabelPosition=bottom;verticalAlign=top;align=center;outlineConnect=0;shape=mxgraph.veeam2.nas;fontColor=#ffffff;" parent="1" vertex="1">
                    <mxGeometry x="319" y="240" width="40" height="80" as="geometry"/>
                </mxCell>
                <mxCell id="16" value="Technische&lt;br&gt;Redundanz" style="endArrow=classic;startArrow=classic;html=1;" parent="1" edge="1">
                    <mxGeometry width="50" height="50" relative="1" as="geometry">
                        <mxPoint x="119" y="280" as="sourcePoint"/>
                        <mxPoint x="279" y="280" as="targetPoint"/>
                    </mxGeometry>
                </mxCell>
                <mxCell id="17" value="" style="rounded=0;whiteSpace=wrap;html=1;fillColor=none;" parent="1" vertex="1">
                    <mxGeometry x="-80" y="80" width="680" height="280" as="geometry"/>
                </mxCell>
                <mxCell id="18" value="PC Büro" style="text;html=1;align=center;verticalAlign=middle;whiteSpace=wrap;rounded=0;fontSize=30;fontStyle=1" parent="1" vertex="1">
                    <mxGeometry x="-40" y="120" width="160" height="80" as="geometry"/>
                </mxCell>
                <mxCell id="19" value="NAS Büro" style="text;html=1;align=center;verticalAlign=middle;whiteSpace=wrap;rounded=0;fontSize=30;fontStyle=1" parent="1" vertex="1">
                    <mxGeometry x="259" y="120" width="160" height="80" as="geometry"/>
                </mxCell>
                <mxCell id="20" value="Versionierung" style="endArrow=none;startArrow=classic;html=1;endFill=0;" parent="1" edge="1">
                    <mxGeometry width="50" height="50" relative="1" as="geometry">
                        <mxPoint x="400" y="279.5" as="sourcePoint"/>
                        <mxPoint x="560" y="279.5" as="targetPoint"/>
                    </mxGeometry>
                </mxCell>
            </root>
        </mxGraphModel>
    </diagram>
</mxfile>